# xmcd
#
# Track frame offsets: 
#        150
#        9981
#        20855
#        29277
#        37021
#        48172
#        57126
#        68515
#        80591
#        90739
#        103106
#        111192
#        122063
#
# Disc length: 1783 seconds
#
# Revision: 0
# Processed by: cddbd v1.5.2PL0 Copyright (c) Steve Scherf et al.
# Submitted via: ExactAudioCopyFreeDBPlugin 1.0
#
DISCID=a306f50d
DTITLE=Johnny Cash - With His Hot and Blue Guitar
DYEAR=1957
DGENRE=Country
TTITLE0=Rock Island Line
TTITLE1=(I Heard That) Lonesome Whistle
TTITLE2=Country Boy
TTITLE3=If The Good Lord's Willing
TTITLE4=Don't Make Me Go
TTITLE5=Remember Me
TTITLE6=Big River
TTITLE7=Give My Love To Rose
TTITLE8=I Was There When It Happened
TTITLE9=Next In Line
TTITLE10=Wreck of old '97
TTITLE11=Belshazzar
TTITLE12=Doin' My Time
EXTD=
EXTT0=
EXTT1=
EXTT2=
EXTT3=
EXTT4=
EXTT5=
EXTT6=
EXTT7=
EXTT8=
EXTT9=
EXTT10=
EXTT11=
EXTT12=
PLAYORDER=
